<svg xmlns="http://www.w3.org/2000/svg" height="40px" viewBox="0 -960 960 960" width="40px" fill="#000000"><path d="M479.92-52q-88.59 0-166.59-33.83-78-33.84-136.33-92.17-58.33-58.33-91.67-136.38Q52-392.42 52-482q0-87.64 33.84-165.81 33.84-78.18 91.43-135.83 57.58-57.65 135.78-91.34 78.19-33.69 166.9-33.69 88.72 0 166.93 33.69 78.22 33.69 135.82 91.34 57.6 57.65 91.78 135.83 34.19 78.17 34.19 165.81 0 89.58-33.67 167.62-33.67 78.05-92 136.38T646.58-85.83Q568.5-52 479.92-52Zm.08-104.67q52.01 0 101.34-15.16Q630.67-187 670-220.33l-451.67-450q-30.66 40.66-46.16 89.11-15.5 48.44-15.5 99.22 0 135.92 94.2 230.63 94.21 94.7 229.13 94.7ZM742-293q28.33-40.67 44.83-89 16.5-48.32 16.5-100 0-134.39-94.2-227.86-94.21-93.47-229.13-93.47-51.44 0-99.05 14.83-47.62 14.83-88.95 45.17L742-293ZM480-482Z"/></svg>